<?xml version="1.0" encoding="UTF-8" standalone="no"?>
<!-- Created with Inkscape (http://www.inkscape.org/) -->

<svg
   width="3840"
   height="2160"
   viewBox="0 0 1016 571.5"
   version="1.1"
   id="svg5"
   sodipodi:docname="undershield-svg.svg"
   inkscape:version="1.1 (c68e22c387, 2021-05-23)"
   xmlns:inkscape="http://www.inkscape.org/namespaces/inkscape"
   xmlns:sodipodi="http://sodipodi.sourceforge.net/DTD/sodipodi-0.dtd"
   xmlns="http://www.w3.org/2000/svg"
   xmlns:svg="http://www.w3.org/2000/svg">
  <sodipodi:namedview
     id="namedview7"
     pagecolor="#ffffff"
     bordercolor="#666666"
     borderopacity="1.0"
     inkscape:pageshadow="2"
     inkscape:pageopacity="0.0"
     inkscape:pagecheckerboard="0"
     inkscape:document-units="mm"
     showgrid="false"
     units="px"
     inkscape:zoom="0.45254834"
     inkscape:cx="1711.4194"
     inkscape:cy="708.21164"
     inkscape:window-width="3840"
     inkscape:window-height="2131"
     inkscape:window-x="-9"
     inkscape:window-y="-9"
     inkscape:window-maximized="1"
     inkscape:current-layer="layer1" />
  <defs
     id="defs2" />
  <g
     inkscape:label="Layer 1"
     inkscape:groupmode="layer"
     id="layer1">
    <rect
       style="opacity:0.99;fill:#333333;fill-opacity:1;stroke:none;stroke-width:0.264594;stroke-opacity:1"
       id="rect18471"
       width="1015.0052"
       height="571.38837"
       x="0.68041241"
       y="0.15801431"
       inkscape:export-filename="D:\Utilities\InkscapePortable\Data\settings\underbone-img.png"
       inkscape:export-xdpi="300"
       inkscape:export-ydpi="300" />
    <g
       id="g18411"
       transform="matrix(0.64195531,0,0,0.64195531,162.86147,173.63569)"
       style="fill:#ffffff"
       inkscape:export-filename="D:\Utilities\InkscapePortable\Data\settings\underbone-img.png"
       inkscape:export-xdpi="300"
       inkscape:export-ydpi="300">
      <g
         id="g17762"
         style="fill:#ffffff;fill-opacity:1"
         transform="translate(23.575086,-161.65773)">
        <path
           id="path888"
           style="fill:#ffffff;fill-opacity:1;stroke:none;stroke-width:0.999999px;stroke-linecap:butt;stroke-linejoin:miter;stroke-opacity:1"
           d="m 1967.0371,779.82617 c -14.3844,-0.0403 -28.4744,0.1306 -42.2383,0.50977 -61.9547,2.24893 -609.2514,-14.49831 -1010.70505,293.58596 -15.10454,11.5915 -69.70657,29.0211 -97.8125,25.0136 -1.20431,-0.1717 -2.33868,-0.2058 -3.48047,-0.2539 a 265.48961,265.48961 0 0 0 -75,-10.8242 265.48961,265.48961 0 0 0 -265.49023,265.4903 265.48961,265.48961 0 0 0 265.49023,265.4902 265.48961,265.48961 0 0 0 158.97852,-53.0879 265.48961,265.48961 0 0 0 -0.60938,16.3145 265.48961,265.48961 0 0 0 265.49028,265.4902 265.48961,265.48961 0 0 0 265.4882,-265.4902 265.48961,265.48961 0 0 0 -62.9023,-171.5625 c -33.755,-60.2897 -40.4195,-113.2491 -24.5801,-176.8301 9.481,-37.533 25.3465,-78.7834 31.1055,-91.7207 3.4335,-10.703 7.6156,-21.2989 12.4531,-31.7246 13.5684,-29.2426 32.2907,-57.1563 54.0957,-82.4102 27.6888,-32.06833 58.9768,-66.03748 108.4199,-93.85156 58.7631,-33.05692 133.3922,-69.18174 218.4063,-83.8457 78.9543,-15.80682 154.2299,-15.15181 222.4785,-15.33398 6.1704,0.48982 12.8273,1.1193 19.252,1.67382 v -56.00976 c -13.1527,-0.3656 -26.1248,-0.58744 -38.8399,-0.62305 z"
           transform="scale(0.26458333)" />
        <path
           id="path15478"
           style="fill:#ffffff;fill-opacity:1;stroke:none;stroke-width:0.264583px;stroke-linecap:butt;stroke-linejoin:miter;stroke-opacity:1"
           d="m 520.44523,206.329 c 3.80587,-0.0107 7.53385,0.0346 11.17555,0.13488 16.39218,0.59503 156.09467,2.2877 262.31262,83.80166 3.99641,3.06692 18.44319,7.6785 25.87955,6.61818 0.31864,-0.0454 0.61878,-0.0545 0.92088,-0.0672 6.44361,-1.89856 13.12625,-2.86302 19.84375,-2.86391 38.79489,-9e-5 70.24439,31.44942 70.24429,70.24431 8e-5,38.79489 -31.44941,70.24437 -70.24429,70.24428 -15.1699,-0.0173 -29.92658,-4.94498 -42.06307,-14.04617 0.098,1.43685 0.15175,2.87638 0.16123,4.31654 8e-5,38.79489 -31.44941,70.24438 -70.2443,70.24428 -38.79468,-2.1e-4 -75.29564,-32.1713 -75.29555,-70.96597 0.002,-16.62349 5.89888,-32.70767 16.6429,-45.39257 12.64002,-34.02914 -1.69633,-80.99759 -21.8154,-105.18374 -28.56978,-37.87072 -90.75743,-54.47677 -132.70079,-52.54336 -1.63259,0.1296 -3.39389,0.29615 -5.09376,0.44286 v -14.81925 c 3.47998,-0.0967 6.91218,-0.15542 10.27639,-0.16485 z"
           sodipodi:nodetypes="scssccscccsccccccss" />
      </g>
      <g
         id="g17822"
         transform="matrix(1,0,0,-1,25.980707,334.18555)"
         style="fill:#ffffff;fill-opacity:1">
        <g
           id="g18286"
           transform="translate(-1.4433726,1.9244968)"
           style="fill:#ffffff;fill-opacity:1">
          <path
             id="path17818"
             style="fill:#ffffff;fill-opacity:1;stroke:none;stroke-width:0.264583px;stroke-linecap:butt;stroke-linejoin:miter;stroke-opacity:1"
             d="m 520.44523,206.32897 c -3.80587,-0.0107 -7.53385,0.0345 -11.17555,0.13488 -16.39218,0.59503 -161.19776,-3.83601 -267.41571,77.67795 -3.99641,3.06692 -18.44319,7.6785 -25.87955,6.61818 -0.31865,-0.0454 -0.61878,-0.0544 -0.92088,-0.0672 a 70.244125,70.244125 0 0 0 -19.84375,-2.8639 70.244125,70.244125 0 0 0 -70.24429,70.24431 70.244125,70.244125 0 0 0 70.24429,70.24428 70.244125,70.244125 0 0 0 42.06307,-14.04618 70.244125,70.244125 0 0 0 -0.16123,4.31655 70.244125,70.244125 0 0 0 70.2443,70.24428 70.244125,70.244125 0 0 0 70.24375,-70.24428 70.244125,70.244125 0 0 0 -16.6429,-45.39258 c -8.93101,-15.95165 -10.69433,-29.96382 -6.50348,-46.7863 2.50851,-9.9306 6.70626,-20.84477 8.22999,-24.26776 0.90845,-2.83184 2.01496,-5.63534 3.29488,-8.3938 3.58998,-7.73711 8.54359,-15.12261 14.31283,-21.80437 7.32599,-8.48474 15.60427,-17.47242 28.68609,-24.83156 15.54774,-8.74631 35.29336,-18.30433 57.78667,-22.18417 20.88999,-4.18222 40.80666,-4.00892 58.8641,-4.05712 1.63259,0.1296 3.39389,0.29615 5.09376,0.44287 V 206.4938 c -3.47999,-0.0967 -6.91219,-0.15543 -10.27639,-0.16485 z" />
          <path
             id="path17820"
             style="fill:#ffffff;fill-opacity:1;stroke:none;stroke-width:0.264583px;stroke-linecap:butt;stroke-linejoin:miter;stroke-opacity:1"
             d="m 520.44523,206.329 c 3.80587,-0.0107 7.53385,0.0346 11.17555,0.13488 16.39218,0.59503 156.09467,2.2877 262.31262,83.80166 3.99641,3.06692 18.44319,7.6785 25.87955,6.61818 0.31864,-0.0454 0.61878,-0.0545 0.92088,-0.0672 6.44361,-1.89856 13.12625,-2.86302 19.84375,-2.86391 38.79489,-9e-5 70.24439,31.44942 70.24429,70.24431 8e-5,38.79489 -31.44941,70.24437 -70.24429,70.24428 -15.1699,-0.0173 -29.92658,-4.94498 -42.06307,-14.04617 0.098,1.43685 0.15175,2.87638 0.16123,4.31654 8e-5,38.79489 -31.44941,70.24438 -70.2443,70.24428 -38.79468,-2.1e-4 -75.29564,-32.1713 -75.29555,-70.96597 0.002,-16.62349 5.89888,-32.70767 16.6429,-45.39257 12.64002,-34.02914 -1.69633,-80.99759 -21.8154,-105.18374 -28.56978,-37.87072 -90.75743,-54.47677 -132.70079,-52.54336 -1.63259,0.1296 -3.39389,0.29615 -5.09376,0.44286 v -14.81925 c 3.47998,-0.0967 6.91218,-0.15542 10.27639,-0.16485 z"
             sodipodi:nodetypes="scssccscccsccccccss" />
        </g>
      </g>
    </g>
    <text
       xml:space="preserve"
       style="font-style:normal;font-weight:normal;font-size:70.5556px;line-height:1.25;font-family:sans-serif;fill:#ffffff;fill-opacity:1;stroke:none;stroke-width:0.264583"
       x="254.86452"
       y="498.47458"
       id="text19981"
       inkscape:export-filename="D:\Utilities\InkscapePortable\Data\settings\underbone-img.png"
       inkscape:export-xdpi="300"
       inkscape:export-ydpi="300"><tspan
         sodipodi:role="line"
         id="tspan19979"
         style="font-style:normal;font-variant:normal;font-weight:bold;font-stretch:normal;font-size:70.5556px;font-family:sans-serif;-inkscape-font-specification:'sans-serif Bold';fill:#ffffff;stroke-width:0.264583"
         x="254.86452"
         y="498.47458">UNDER BONE</tspan></text>
  </g>
</svg>
